<svg version="1.1" id="Layer_1" xmlns="http://www.w3.org/2000/svg" xmlns:xlink="http://www.w3.org/1999/xlink" x="0px" y="0px"
	 width="100%" viewBox="0 0 500 500" enable-background="new 0 0 500 500" xml:space="preserve">
<path fill="#010000" opacity="1.000000" stroke="none" 
	d="
M225.000000,501.000000 
	C150.000015,501.000000 75.500038,501.000000 1.000040,501.000000 
	C1.000027,334.333405 1.000027,167.666779 1.000013,1.000129 
	C167.666565,1.000086 334.333130,1.000086 500.999756,1.000043 
	C500.999847,167.666534 500.999847,334.333069 500.999939,500.999817 
	C409.166656,501.000000 317.333344,501.000000 225.000000,501.000000 
M322.527954,211.664871 
	C322.802643,210.762100 323.077332,209.859314 323.466980,208.099762 
	C323.310425,207.251953 323.153870,206.404129 323.030945,205.638351 
	C323.030945,205.638351 322.976868,205.628738 322.534180,204.646027 
	C322.370087,204.326416 322.205994,204.006790 322.141876,203.709915 
	C322.141876,203.709915 322.046082,203.683624 321.622864,203.132431 
	C321.048279,202.760025 320.473694,202.387634 320.301666,201.410980 
	C323.700287,200.562576 325.425201,198.462128 325.388428,193.699005 
	C321.171326,194.883911 317.446045,195.930649 314.084778,196.166794 
	C314.130859,193.817673 314.176971,191.468536 314.402344,188.839142 
	C314.445709,188.471802 314.318115,188.187668 313.845215,187.393829 
	C313.686768,187.105576 313.471863,186.549194 313.378235,186.568909 
	C311.687164,186.924988 309.431702,186.808990 308.443054,187.865952 
	C305.806610,190.684708 303.716278,194.014297 300.507141,197.739258 
	C299.393829,198.637527 298.280487,199.535797 296.533081,200.574265 
	C295.051727,203.339340 293.570374,206.104416 292.051483,209.687103 
	C292.078033,210.506653 292.104614,211.326202 292.140259,212.762238 
	C292.170685,213.171967 292.201141,213.581711 291.718201,214.329880 
	C291.450256,214.634247 291.182281,214.938614 290.283356,215.373795 
	C287.440277,220.898788 284.597168,226.423782 281.150787,232.019272 
	C280.464783,231.243195 279.444458,230.571304 279.163300,229.669067 
	C278.599884,227.861099 278.440613,225.927200 277.979126,223.306534 
	C278.331177,221.344925 279.612976,218.870773 278.865662,217.515213 
	C276.350128,212.952026 273.062073,208.820023 270.188721,204.444824 
	C269.518219,203.423843 269.317688,202.094223 269.604370,200.926331 
	C271.342316,202.390625 273.080261,203.854919 274.818207,205.319199 
	C273.314453,202.902649 272.855835,200.044205 272.179321,197.238312 
	C269.820831,187.456924 271.629852,178.160934 275.380676,169.096130 
	C275.595917,168.575928 276.484894,168.334488 277.564056,168.619125 
	C276.017792,174.058029 274.471527,179.496933 272.724304,185.642715 
	C276.550659,183.905960 279.175049,182.523849 281.935852,181.515060 
	C284.727020,180.495163 287.693268,179.963287 290.512665,179.010056 
	C298.024139,176.470428 302.309296,169.848541 300.809143,162.515503 
	C301.165833,160.093719 302.499023,156.020493 301.702301,155.549408 
	C298.942230,153.917435 295.469055,153.374832 292.198853,152.822861 
	C291.561493,152.715286 290.617554,154.423828 289.159698,155.477631 
	C287.006805,153.676071 285.813721,154.936813 284.550079,156.742783 
	C282.796570,159.248856 280.834015,161.608673 278.343597,163.610550 
	C278.883331,162.083221 279.423035,160.555908 280.042084,158.804108 
	C278.365845,159.306229 277.187286,159.659271 275.199982,159.815659 
	C275.607147,158.993469 276.014313,158.171295 276.274963,157.644958 
	C261.810730,157.644958 247.222244,157.644958 232.801712,157.644958 
	C232.801712,163.835190 233.001724,169.786179 232.715012,175.713638 
	C232.577347,178.559830 234.040543,178.806961 236.861435,178.705368 
	C238.056366,179.937271 239.251297,181.169159 239.903946,182.766190 
	C238.640808,184.478500 234.904907,180.938431 234.326630,184.994202 
	C233.885101,184.763840 233.443573,184.533463 232.503418,184.599472 
	C231.992752,185.761246 231.482101,186.923035 230.349243,188.337158 
	C223.142746,204.092667 210.854233,215.870316 199.204575,228.172714 
	C201.689545,227.355896 204.174530,226.539093 207.269150,225.979797 
	C207.837524,226.303421 208.405884,226.627060 208.299896,227.263748 
	C204.733780,229.022141 201.167664,230.780533 197.201294,232.671005 
	C197.201294,232.671005 196.974869,233.027069 196.326294,233.197281 
	C189.521378,237.923981 185.261810,244.534332 184.874588,252.641937 
	C184.488083,260.734619 185.594193,268.898590 185.799850,277.806183 
	C181.794952,279.205505 177.861160,280.875549 173.770859,281.949677 
	C164.329163,284.429047 155.158173,284.236023 147.537033,277.536560 
	C154.984833,280.123596 162.391083,283.063324 169.731018,280.681549 
	C168.899185,279.521210 167.942474,278.186676 167.145828,276.164307 
	C168.859848,272.802643 170.573868,269.441010 172.534821,265.595032 
	C170.283020,265.387756 167.576096,265.138611 165.091537,264.090424 
	C169.729523,263.479736 174.367523,262.869080 179.272446,262.223267 
	C179.905075,257.348358 177.534073,253.553284 173.454910,250.829239 
	C168.729980,247.673965 163.750381,248.223709 158.804871,250.576767 
	C155.019348,252.377884 153.165375,254.918976 154.733276,259.283051 
	C155.493835,261.399994 155.801910,263.679504 155.535965,266.119446 
	C153.976181,261.900940 152.416397,257.682434 150.702042,253.045868 
	C146.295044,258.398804 144.635696,264.253571 146.000763,271.029541 
	C146.468918,273.353394 146.615021,275.742096 146.382874,278.460266 
	C146.429840,279.406097 146.117157,280.605957 146.578491,281.259094 
	C152.200745,289.218811 160.398651,292.604706 169.656662,294.248169 
	C177.302505,295.605469 184.328842,293.388275 191.444489,291.789368 
	C190.459564,292.805511 189.474625,293.821655 188.207794,295.128632 
	C189.693832,295.216492 190.984909,295.357819 192.276154,295.359283 
	C207.937531,295.376892 223.598969,295.394348 239.260284,295.364319 
	C244.232208,295.354797 246.280685,292.190155 244.438446,287.535034 
	C243.097946,284.147675 240.617523,282.487946 236.995804,283.071198 
	C226.820389,284.709991 216.668808,286.496948 206.492416,288.129211 
	C204.993439,288.369659 203.410629,288.087433 202.087814,287.478638 
	C202.881821,287.061859 203.675842,286.645111 203.987549,286.481506 
	C200.735458,285.001526 197.348175,283.459991 194.652130,281.417267 
	C199.389786,282.053925 204.170700,283.407990 208.852966,283.125732 
	C213.547470,282.842743 218.143570,280.927155 222.825241,280.451447 
	C222.493164,281.057007 222.161087,281.662598 221.689560,282.522491 
	C236.014359,281.143738 239.591965,282.613068 245.512070,267.258606 
	C245.880386,267.509979 246.248688,267.761353 246.686813,268.803680 
	C246.691010,269.860901 246.695221,270.918152 246.510132,272.234192 
	C246.445007,272.585938 246.573486,272.848175 247.106415,273.858459 
	C247.469620,276.152405 247.843353,278.444733 248.194336,280.740570 
	C250.411316,295.242676 250.409637,295.242859 264.923279,294.462891 
	C265.088928,294.453979 265.256226,294.436157 265.420685,294.448853 
	C269.010315,294.725433 270.307556,291.976410 270.397430,289.462463 
	C270.472321,287.368500 269.309509,283.884064 267.819031,283.316772 
	C261.831207,281.037750 259.781677,275.752594 257.555481,271.036285 
	C257.992065,271.032776 258.428619,271.029266 259.269867,271.530975 
	C260.285645,272.945526 261.301422,274.360077 262.565399,276.120270 
	C263.446381,269.687012 264.246521,263.843872 265.478882,257.319092 
	C265.943420,253.565079 266.407959,249.811050 267.061157,246.848984 
	C267.168915,248.896545 267.276672,250.944107 267.407990,253.439713 
	C271.240967,248.274033 274.670868,243.651566 278.415894,239.296631 
	C278.921051,239.595230 279.426239,239.893845 280.630219,240.225403 
	C281.073944,240.082321 281.517670,239.939240 282.125885,240.607574 
	C282.191223,240.875717 282.256531,241.143845 281.809204,241.965164 
	C281.196106,243.887970 279.650085,246.094284 280.133179,247.683975 
	C282.112244,254.196457 284.709930,260.520935 286.830414,267.418732 
	C286.534729,268.102539 286.239075,268.786346 285.891235,270.392700 
	C286.073547,274.730621 288.320068,279.177032 282.459351,282.402252 
	C279.140533,284.228607 281.064301,291.935181 284.908173,292.646729 
	C288.266022,293.268311 291.915344,292.315491 296.067383,291.977783 
	C296.485657,291.905975 296.903900,291.834167 297.954315,292.287323 
	C298.388428,292.524811 298.818726,292.962067 299.257233,292.970428 
	C308.745605,293.152435 318.234711,293.312897 327.724335,293.368286 
	C328.330261,293.371826 328.941376,292.489594 330.151062,292.069824 
	C330.753815,292.052856 331.356537,292.035889 332.504089,292.522919 
	C340.172394,296.145721 354.802124,287.957428 355.629089,279.542267 
	C355.640442,279.426819 354.908081,279.238281 354.594879,278.161530 
	C358.528046,272.750610 357.802094,268.070190 352.497314,263.986237 
	C352.048950,263.641083 352.163513,262.564728 352.695679,262.025208 
	C353.363708,262.578003 354.031738,263.130829 354.699768,263.683624 
	C355.076965,263.437103 355.454193,263.190582 355.831390,262.944031 
	C352.835724,257.807251 349.862274,252.657089 346.793854,247.564148 
	C346.591644,247.228516 345.664398,247.329697 344.886169,246.514282 
	C346.537994,244.489349 348.483978,242.628098 349.734955,240.380081 
	C350.526947,238.956879 350.282959,236.957153 350.503601,235.216003 
	C348.712952,235.090637 345.955139,234.182922 345.308167,234.982742 
	C343.137665,237.665863 341.229553,240.800629 340.179443,244.070328 
	C339.423370,246.424408 340.195251,249.269226 339.654114,251.838043 
	C337.496765,249.879807 335.339386,247.921570 332.840759,245.373444 
	C330.742157,243.519623 328.902313,241.165039 326.489899,239.918610 
	C321.792236,237.491425 318.339935,232.320679 311.610382,232.780914 
	C311.074554,232.179626 310.538696,231.578323 310.850922,230.957825 
	C312.631470,230.746429 314.441528,230.672501 316.186920,230.297501 
	C321.160828,229.228836 326.154999,228.084335 325.972595,220.997147 
	C327.018097,219.205399 328.063599,217.413635 329.109100,215.621887 
	C327.344513,215.139404 325.579926,214.656937 323.269043,213.970505 
	C322.891479,213.880112 322.513947,213.789719 322.083282,213.143448 
	C322.058380,212.768051 322.033478,212.392639 321.960297,211.862076 
	C321.960297,211.862076 321.884399,211.718430 322.527954,211.664871 
M250.990601,133.356812 
	C248.710968,129.737320 246.696915,125.908493 244.063736,122.567657 
	C242.120209,120.101822 239.747559,120.416344 238.252823,123.520302 
	C234.453003,131.410950 233.542130,139.857285 232.804184,148.106750 
	C234.758392,148.357040 236.042648,148.521530 236.527863,149.441971 
	C235.318680,151.060349 234.109497,152.678741 232.432816,154.922821 
	C250.441833,156.585785 267.367615,157.921738 283.929260,151.665421 
	C280.395172,142.770020 273.654877,138.225830 265.858917,134.103455 
	C265.442566,130.270065 266.045441,126.093536 261.795013,122.760460 
	C259.635529,125.176079 257.614777,127.501823 255.518951,129.757812 
	C254.135529,131.246979 252.644180,132.635864 250.990601,133.356812 
M258.680267,320.664307 
	C263.804657,318.298248 260.678162,314.104523 261.645569,310.547485 
	C253.161179,310.547485 245.427322,310.547485 237.027557,310.547485 
	C237.027557,323.327637 237.027557,335.805756 237.027557,348.116699 
	C241.412170,348.116699 245.616516,348.116699 250.073608,348.116699 
	C250.073608,342.802429 250.073608,338.022003 250.073608,333.011780 
	C253.085327,332.800629 255.846848,332.606995 259.363190,332.360443 
	C259.197479,329.439484 259.044250,326.738220 258.676086,323.413910 
	C258.437744,322.568268 258.199402,321.722656 258.680267,320.664307 
M359.236847,346.840942 
	C370.551056,342.310516 375.675171,333.174469 372.885101,322.506897 
	C370.285339,312.567017 353.652649,306.437500 345.008087,312.278870 
	C344.415802,312.679077 343.795807,313.565582 343.791412,314.229950 
	C343.716888,325.439423 343.738098,336.649567 343.738098,348.866547 
	C348.747131,348.250977 353.609894,347.653351 359.236847,346.840942 
M326.844971,346.542694 
	C328.011200,345.907867 329.243713,345.369629 330.332642,344.622192 
	C336.374664,340.474579 339.110840,331.821686 336.879913,324.099274 
	C335.005493,317.611023 329.222473,313.276794 321.966675,312.922150 
	C314.365143,312.550629 307.737793,316.662689 305.121918,323.631439 
	C302.735565,329.988831 303.290527,336.133240 307.667145,341.484467 
	C312.518341,347.415985 318.917023,348.680786 326.844971,346.542694 
M285.943604,313.187256 
	C278.296661,311.935760 272.097168,314.208252 268.009308,320.967865 
	C264.366486,326.991516 264.160980,333.296356 267.735962,339.415924 
	C271.620697,346.065735 279.179565,349.009094 286.641174,347.104126 
	C293.797424,345.277100 298.950867,338.374817 299.140137,330.363556 
	C299.343994,321.736328 295.357727,316.244843 285.943604,313.187256 
M128.670975,334.520966 
	C128.670975,339.254395 128.670975,343.987793 128.670975,348.662262 
	C133.229858,348.662262 136.986603,348.662262 141.228531,348.662262 
	C141.228531,344.626038 141.228531,340.881805 141.228531,337.170074 
	C144.298737,336.539093 146.947113,336.193390 149.472687,335.437408 
	C156.228668,333.415131 159.611633,329.096191 159.552612,322.904602 
	C159.495255,316.886993 155.915924,311.927307 149.101501,310.755920 
	C143.835876,309.850800 138.269852,310.633453 132.839890,310.767822 
	C129.791000,310.843262 128.604767,312.380188 128.721115,315.581726 
	C128.938309,321.558472 128.712585,327.551300 128.670975,334.520966 
M165.313461,312.972412 
	C165.313461,324.731720 165.313461,336.491058 165.313461,348.045410 
	C172.652420,348.045410 180.036072,348.045410 187.746216,348.045410 
	C187.746216,343.877136 187.746216,340.305176 187.746216,336.115845 
	C184.113190,336.115845 180.710220,336.115845 177.307251,336.115845 
	C177.153412,335.456024 176.999588,334.796234 176.845764,334.136414 
	C179.554276,333.365204 182.262787,332.593964 185.247345,331.744141 
	C185.403687,329.432587 185.566132,327.030792 185.741577,324.436737 
	C182.895096,324.102417 180.574753,323.829865 178.254425,323.557343 
	C178.182693,322.968567 178.110962,322.379822 178.039246,321.791046 
	C179.845764,321.458374 181.684647,320.725952 183.452621,320.869171 
	C188.426392,321.272034 190.520218,319.249084 189.859985,314.304016 
	C189.694672,313.065826 189.692490,311.805817 189.594894,310.224579 
	C182.077713,310.224579 174.942520,310.164551 167.811310,310.305634 
	C166.983063,310.322021 166.176880,311.452820 165.313461,312.972412 
M213.314331,340.011658 
	C213.820374,334.255676 214.326416,328.499725 214.838440,322.675659 
	C217.616318,322.383392 219.888077,322.144409 222.493835,321.870270 
	C222.493835,318.149536 222.493835,314.623993 222.493835,311.036163 
	C212.779999,311.036163 203.397385,311.036163 193.876526,311.036163 
	C193.876526,315.293579 193.876526,319.188934 193.876526,323.427734 
	C196.441284,323.427734 198.679703,323.427734 201.381378,323.427734 
	C201.381378,331.688477 201.381378,339.611053 201.381378,348.017273 
	C205.442108,347.777435 208.996597,347.567474 212.727066,347.347137 
	C212.927032,344.856781 213.085846,342.879089 213.314331,340.011658 
M293.882111,364.516418 
	C293.642975,359.892395 290.794525,360.263184 287.593750,361.175293 
	C287.084320,363.074097 286.591492,364.911011 286.098663,366.747925 
	C285.868591,366.726196 285.638550,366.704498 285.408478,366.682770 
	C285.057251,364.838654 284.706024,362.994537 284.284576,360.781677 
	C282.007324,360.958435 279.938446,361.118988 277.413666,361.314911 
	C278.113434,365.692230 278.697174,369.605316 279.371002,373.502808 
	C280.680786,381.078644 280.701721,381.075012 288.498749,379.858459 
	C289.066956,378.332031 289.638855,376.795685 290.470184,374.562378 
	C291.164001,377.194977 291.623505,378.938538 292.082001,380.678284 
	C294.760773,380.678284 297.223145,380.678284 300.009888,380.678284 
	C301.107574,374.210693 302.177368,367.907379 303.301422,361.284485 
	C300.449799,361.111816 298.375488,360.986176 296.293915,360.860107 
	C295.915741,363.000275 295.629211,364.621826 295.342651,366.243408 
	C294.886505,365.924683 294.430328,365.605988 293.882111,364.516418 
M188.449005,378.100769 
	C189.995651,382.767181 192.913574,379.407532 194.582199,379.558044 
	C194.582199,376.784302 193.824173,373.965210 194.746033,371.893616 
	C196.463470,368.034210 196.618256,364.856659 193.360031,362.013855 
	C190.852386,359.826050 182.471771,359.495056 180.503677,361.404144 
	C180.079712,361.815460 179.748093,362.544037 179.742416,363.130035 
	C179.686569,368.884369 179.708710,374.639465 179.708710,380.380798 
	C181.766022,380.380798 183.506989,380.380798 185.254700,380.380798 
	C185.682480,378.453094 186.039291,376.845215 186.598862,374.323639 
	C187.445404,375.993469 187.803329,376.699524 188.449005,378.100769 
M202.265549,373.403137 
	C202.265549,375.807190 202.265549,378.211212 202.265549,380.386414 
	C206.752182,380.386414 210.480484,380.386414 214.458435,380.386414 
	C214.458435,378.178040 214.458435,376.426636 214.458435,374.583832 
	C212.603409,374.259521 210.968231,373.973633 209.333054,373.687775 
	C212.456085,372.573792 214.438202,371.710632 212.847946,367.645905 
	C212.341599,366.351685 215.115616,363.774109 217.001114,360.826050 
	C211.219254,360.826050 207.174744,360.826050 202.281891,360.826050 
	C202.281891,364.902191 202.281891,368.672882 202.265549,373.403137 
M321.603577,377.449341 
	C322.698730,372.532867 317.775055,375.086243 315.604187,373.003876 
	C320.448700,372.560455 321.624176,370.490082 320.063751,368.069122 
	C321.276642,365.285706 322.129883,363.327728 323.357056,360.511566 
	C318.716248,360.511566 315.417084,360.348541 312.152985,360.614838 
	C311.221558,360.690796 309.660278,361.986206 309.631897,362.767578 
	C309.418274,368.654053 309.515381,374.551758 309.515381,380.727722 
	C312.907227,380.727722 316.042175,380.904663 319.133270,380.614655 
	C320.005280,380.532867 320.748993,379.083649 321.603577,377.449341 
M233.022888,360.909668 
	C231.919769,363.509338 230.816650,366.109009 229.457748,369.311493 
	C228.539459,366.161133 227.808304,363.652710 226.980713,360.813538 
	C224.835281,360.984680 222.811371,361.146118 220.278412,361.348175 
	C222.274780,367.585266 223.869171,373.155304 225.935287,378.544495 
	C226.369370,379.676758 228.532043,380.740570 229.908234,380.753296 
	C231.338013,380.766541 233.706360,379.771210 234.061096,378.690613 
	C235.900391,373.087921 237.226929,367.316895 238.827133,361.243927 
	C236.663681,361.074677 235.201309,360.960297 233.022888,360.909668 
M270.876221,379.199341 
	C270.876221,377.625244 270.876221,376.051147 270.876221,374.536499 
	C268.911133,374.240936 267.477203,374.025299 267.272308,373.994476 
	C269.063293,369.893127 270.904388,365.677094 272.982727,360.917755 
	C267.424377,360.917755 263.356415,360.917755 259.010864,360.917755 
	C259.010864,367.721466 259.010864,374.139893 259.010864,381.143372 
	C263.093079,380.746735 266.838165,380.382904 270.876221,379.199341 
M336.981049,373.686340 
	C336.879547,375.114288 336.778046,376.542206 336.705231,377.566101 
	C340.268951,377.566101 343.505096,377.566101 346.200867,377.566101 
	C347.171173,374.801666 348.203827,371.859589 349.033020,369.497253 
	C346.514313,367.542847 343.951080,365.553864 341.946808,363.998596 
	C339.355408,365.873535 336.723602,367.777679 334.021973,369.732361 
	C334.878265,370.751556 335.829346,371.883514 336.981049,373.686340 
M155.308350,374.627075 
	C155.373093,375.813843 155.437851,377.000641 155.466873,377.532471 
	C158.988678,377.532471 161.944901,377.532471 164.635681,377.532471 
	C165.509476,374.889893 166.518250,371.839111 167.290115,369.504761 
	C164.827911,367.480347 162.353165,365.445648 160.413391,363.850769 
	C157.892593,365.745575 155.319458,367.679718 152.734070,369.623108 
	C153.466309,370.841766 154.381302,372.364532 155.308350,374.627075 
M244.691193,375.130493 
	C244.691193,376.760986 244.691193,378.391510 244.691193,380.374329 
	C246.962692,380.271454 248.738815,380.191010 250.900223,380.093109 
	C251.363693,373.667542 251.808823,367.496002 252.272720,361.064423 
	C249.362900,361.192596 247.252838,361.285522 244.692215,361.398315 
	C244.692215,365.947357 244.692215,370.083221 244.691193,375.130493 
z"/>
<path fill="#ED8324" opacity="1.000000" stroke="none" 
	d="
M233.002045,184.303085 
	C233.443573,184.533463 233.885101,184.763840 234.729874,185.370728 
	C244.377289,194.287735 251.937775,204.060501 257.192871,215.566620 
	C257.753113,216.793289 259.000366,217.706146 260.028381,219.105576 
	C260.636566,222.303833 261.145294,225.161118 261.757324,228.416916 
	C262.922607,238.543869 263.984650,248.272324 265.046692,258.000763 
	C264.246521,263.843872 263.446381,269.687012 262.565399,276.120270 
	C261.301422,274.360077 260.285645,272.945526 258.996033,270.938171 
	C243.704620,243.590912 235.972153,214.658783 233.002045,184.303085 
z"/>
<path fill="#E76126" opacity="1.000000" stroke="none" 
	d="
M358.854736,346.948364 
	C353.609894,347.653351 348.747131,348.250977 343.738098,348.866547 
	C343.738098,336.649567 343.716888,325.439423 343.791412,314.229950 
	C343.795807,313.565582 344.415802,312.679077 345.008087,312.278870 
	C353.652649,306.437500 370.285339,312.567017 372.885101,322.506897 
	C375.675171,333.174469 370.551056,342.310516 358.854736,346.948364 
M355.978821,330.343994 
	C355.978821,332.704590 355.978821,335.065155 355.978821,337.819977 
	C360.810730,335.937195 362.468719,332.648224 362.215576,328.322205 
	C362.029663,325.146240 360.577972,322.848694 356.633057,322.196808 
	C356.406555,324.937744 356.219208,327.204498 355.978821,330.343994 
z"/>
<path fill="#E76126" opacity="1.000000" stroke="none" 
	d="
M326.483582,346.683044 
	C318.917023,348.680786 312.518341,347.415985 307.667145,341.484467 
	C303.290527,336.133240 302.735565,329.988831 305.121918,323.631439 
	C307.737793,316.662689 314.365143,312.550629 321.966675,312.922150 
	C329.222473,313.276794 335.005493,317.611023 336.879913,324.099274 
	C339.110840,331.821686 336.374664,340.474579 330.332642,344.622192 
	C329.243713,345.369629 328.011200,345.907867 326.483582,346.683044 
M319.745331,324.918854 
	C315.558167,327.340454 314.099121,330.625397 316.647919,333.616791 
	C317.856354,335.035095 321.208801,336.095245 322.783142,335.424377 
	C325.965881,334.068115 326.336182,330.617493 324.789490,327.708221 
	C324.077454,326.368774 321.985321,325.763062 319.745331,324.918854 
z"/>
<path fill="#E76126" opacity="1.000000" stroke="none" 
	d="
M286.359680,313.258850 
	C295.357727,316.244843 299.343994,321.736328 299.140137,330.363556 
	C298.950867,338.374817 293.797424,345.277100 286.641174,347.104126 
	C279.179565,349.009094 271.620697,346.065735 267.735962,339.415924 
	C264.160980,333.296356 264.366486,326.991516 268.009308,320.967865 
	C272.097168,314.208252 278.296661,311.935760 286.359680,313.258850 
M284.732422,325.553009 
	C281.738983,324.286682 278.721771,324.497009 277.843506,327.834778 
	C277.271820,330.007355 277.985931,333.000549 279.203857,334.952271 
	C279.787079,335.886871 284.260406,335.904541 284.581146,335.218994 
	C285.697693,332.832458 285.807190,329.962311 286.190491,327.260590 
	C286.239685,326.913940 285.646545,326.476166 284.732422,325.553009 
z"/>
<path fill="#959D8D" opacity="1.000000" stroke="none" 
	d="
M128.671082,334.029175 
	C128.712585,327.551300 128.938309,321.558472 128.721115,315.581726 
	C128.604767,312.380188 129.791000,310.843262 132.839890,310.767822 
	C138.269852,310.633453 143.835876,309.850800 149.101501,310.755920 
	C155.915924,311.927307 159.495255,316.886993 159.552612,322.904602 
	C159.611633,329.096191 156.228668,333.415131 149.472687,335.437408 
	C146.947113,336.193390 144.298737,336.539093 141.228531,337.170074 
	C141.228531,340.881805 141.228531,344.626038 141.228531,348.662262 
	C136.986603,348.662262 133.229858,348.662262 128.670975,348.662262 
	C128.670975,343.987793 128.670975,339.254395 128.671082,334.029175 
M141.770996,322.659027 
	C141.770996,324.418396 141.770996,326.177765 141.770996,329.718079 
	C144.377335,327.576752 146.131912,326.577637 147.173904,325.082092 
	C147.654572,324.392181 147.005264,321.867523 146.408218,321.685699 
	C145.038712,321.268707 143.386642,321.779602 141.770996,322.659027 
z"/>
<path fill="#E76126" opacity="1.000000" stroke="none" 
	d="
M261.653992,228.018402 
	C261.145294,225.161118 260.636566,222.303833 260.016022,218.733765 
	C255.952438,210.692078 252.128281,203.290207 247.993835,196.065887 
	C245.998016,192.578506 243.418411,189.425217 241.470825,186.076706 
	C249.545151,190.379181 257.251770,194.725601 265.194550,199.405579 
	C266.625671,200.139984 267.820618,200.540833 268.978302,200.961121 
	C268.941010,200.980530 268.900940,200.906601 268.900940,200.906601 
	C269.317688,202.094223 269.518219,203.423843 270.188721,204.444824 
	C273.062073,208.820023 276.350128,212.952026 278.865662,217.515213 
	C279.612976,218.870773 278.331177,221.344925 277.987305,224.133850 
	C278.030579,229.650467 278.065674,234.339783 278.100769,239.029114 
	C274.670868,243.651566 271.240967,248.274033 267.407990,253.439713 
	C267.276672,250.944107 267.168915,248.896545 267.027588,246.015167 
	C266.074768,239.896667 265.227234,234.597061 264.136414,229.348007 
	C264.013885,228.758316 262.514740,228.454697 261.653992,228.018402 
z"/>
<path fill="#929A8A" opacity="1.000000" stroke="none" 
	d="
M165.336960,312.519684 
	C166.176880,311.452820 166.983063,310.322021 167.811310,310.305634 
	C174.942520,310.164551 182.077713,310.224579 189.594894,310.224579 
	C189.692490,311.805817 189.694672,313.065826 189.859985,314.304016 
	C190.520218,319.249084 188.426392,321.272034 183.452621,320.869171 
	C181.684647,320.725952 179.845764,321.458374 178.039246,321.791046 
	C178.110962,322.379822 178.182693,322.968567 178.254425,323.557343 
	C180.574753,323.829865 182.895096,324.102417 185.741577,324.436737 
	C185.566132,327.030792 185.403687,329.432587 185.247345,331.744141 
	C182.262787,332.593964 179.554276,333.365204 176.845764,334.136414 
	C176.999588,334.796234 177.153412,335.456024 177.307251,336.115845 
	C180.710220,336.115845 184.113190,336.115845 187.746216,336.115845 
	C187.746216,340.305176 187.746216,343.877136 187.746216,348.045410 
	C180.036072,348.045410 172.652420,348.045410 165.313461,348.045410 
	C165.313461,336.491058 165.313461,324.731720 165.336960,312.519684 
z"/>
<path fill="#F4AD3E" opacity="1.000000" stroke="none" 
	d="
M265.778473,134.941422 
	C273.654877,138.225830 280.395172,142.770020 283.929260,151.665421 
	C267.367615,157.921738 250.441833,156.585785 232.432816,154.922821 
	C234.109497,152.678741 235.318680,151.060349 236.934418,149.034393 
	C239.244812,146.602417 241.148666,144.578049 243.387573,142.376007 
	C244.841187,140.806381 245.959778,139.414444 247.046082,138.018005 
	C247.013779,138.013519 247.024597,138.077820 247.161224,138.511093 
	C248.609848,137.895218 249.921844,136.846085 251.635742,135.808777 
	C256.617920,135.527542 261.198212,135.234482 265.778473,134.941422 
z"/>
<path fill="#E36026" opacity="1.000000" stroke="none" 
	d="
M258.890991,324.036987 
	C259.044250,326.738220 259.197479,329.439484 259.363190,332.360443 
	C255.846848,332.606995 253.085327,332.800629 250.073608,333.011780 
	C250.073608,338.022003 250.073608,342.802429 250.073608,348.116699 
	C245.616516,348.116699 241.412170,348.116699 237.027557,348.116699 
	C237.027557,335.805756 237.027557,323.327637 237.027557,310.547485 
	C245.427322,310.547485 253.161179,310.547485 261.645569,310.547485 
	C260.678162,314.104523 263.804657,318.298248 257.886719,320.681641 
	C254.757507,320.912994 252.421844,321.127014 250.086182,321.341034 
	C250.065094,322.074310 250.044022,322.807556 250.022949,323.540802 
	C252.978973,323.706207 255.934998,323.871613 258.890991,324.036987 
z"/>
<path fill="#F1AD41" opacity="1.000000" stroke="none" 
	d="
M197.601562,232.538910 
	C201.167664,230.780533 204.733780,229.022141 209.100250,227.144958 
	C213.839127,226.834167 217.777649,226.642136 221.716187,226.450119 
	C221.632065,225.649750 221.547958,224.849365 221.463852,224.048996 
	C216.529068,224.606750 211.594284,225.164505 206.659500,225.722260 
	C204.174530,226.539093 201.689545,227.355896 199.204575,228.172714 
	C210.854233,215.870316 223.142746,204.092667 230.651855,188.635803 
	C233.833755,204.052917 236.713058,219.171417 239.595703,234.307419 
	C239.055191,234.256104 238.306839,234.185043 237.378204,233.882294 
	C236.085083,232.901657 234.972275,232.152710 233.905823,231.008392 
	C230.502457,228.809616 227.052719,227.006241 223.602966,225.202866 
	C223.294861,225.705002 222.986755,226.207138 222.678635,226.709274 
	C223.154327,227.481873 223.630020,228.254471 223.680206,228.996216 
	C220.643143,228.636154 217.880600,227.599472 215.450043,228.118256 
	C209.561737,229.375076 203.828110,231.356522 197.925079,232.918671 
	C197.818008,232.791443 197.601562,232.538925 197.601562,232.538910 
z"/>
<path fill="#EB8326" opacity="1.000000" stroke="none" 
	d="
M276.008759,160.012314 
	C277.187286,159.659271 278.365845,159.306229 280.042084,158.804108 
	C279.423035,160.555908 278.883331,162.083221 278.670288,163.786804 
	C278.996979,163.963074 279.065491,163.998062 278.660889,163.867767 
	C277.847626,165.177902 277.438934,166.618332 277.013641,168.027313 
	C276.997040,167.995850 277.060303,167.963318 277.060303,167.963318 
	C276.484894,168.334488 275.595917,168.575928 275.380676,169.096130 
	C271.629852,178.160934 269.820831,187.456924 272.179321,197.238312 
	C272.855835,200.044205 273.314453,202.902649 274.818207,205.319199 
	C273.080261,203.854919 271.342316,202.390625 269.252655,200.916473 
	C268.900940,200.906601 268.941010,200.980530 268.975311,200.646820 
	C268.052063,199.504028 267.094513,198.694916 265.985718,197.584473 
	C257.883514,192.542786 249.932556,187.802429 241.749603,182.914307 
	C241.170364,182.660248 240.823105,182.553925 240.473328,182.433014 
	C240.470825,182.418396 240.446228,182.401047 240.446228,182.401047 
	C239.251297,181.169159 238.056366,179.937271 236.446121,178.847031 
	C236.030807,178.988693 235.980682,178.950226 236.037872,179.449097 
	C247.804794,174.552811 259.520660,169.170776 271.200500,163.711685 
	C271.640137,163.506180 271.730530,162.553452 271.988281,161.976379 
	C271.992920,162.003830 271.945557,161.974503 272.191711,162.303436 
	C273.632385,161.738327 274.826904,160.844254 276.040192,159.970795 
	C276.058960,159.991409 276.008759,160.012314 276.008759,160.012314 
z"/>
<path fill="#939B8C" opacity="1.000000" stroke="none" 
	d="
M213.279480,340.456543 
	C213.085846,342.879089 212.927032,344.856781 212.727066,347.347137 
	C208.996597,347.567474 205.442108,347.777435 201.381378,348.017273 
	C201.381378,339.611053 201.381378,331.688477 201.381378,323.427734 
	C198.679703,323.427734 196.441284,323.427734 193.876526,323.427734 
	C193.876526,319.188934 193.876526,315.293579 193.876526,311.036163 
	C203.397385,311.036163 212.779999,311.036163 222.493835,311.036163 
	C222.493835,314.623993 222.493835,318.149536 222.493835,321.870270 
	C219.888077,322.144409 217.616318,322.383392 214.838440,322.675659 
	C214.326416,328.499725 213.820374,334.255676 213.279480,340.456543 
z"/>
<path fill="#E58227" opacity="1.000000" stroke="none" 
	d="
M191.389725,291.086304 
	C184.328842,293.388275 177.302505,295.605469 169.656662,294.248169 
	C160.398651,292.604706 152.200745,289.218811 146.578491,281.259094 
	C146.117157,280.605957 146.429840,279.406097 146.677383,278.243652 
	C146.971893,278.027008 146.900406,278.093689 146.900406,278.093689 
	C155.158173,284.236023 164.329163,284.429047 173.770859,281.949677 
	C177.861160,280.875549 181.794952,279.205505 185.888214,277.403076 
	C185.976593,277.000000 186.007034,276.930176 185.800964,277.321045 
	C186.085724,277.806030 186.576553,277.900177 187.035034,277.997742 
	C187.002670,278.001099 187.008575,277.936279 186.869064,278.330933 
	C187.838425,279.139038 188.947281,279.552460 190.029419,279.980408 
	C190.002701,279.994965 190.001099,279.934143 189.896027,280.347046 
	C191.210602,281.159088 192.630234,281.558197 194.017578,281.970612 
	C193.985306,281.983917 193.960876,281.918488 193.960876,281.918488 
	C197.348175,283.459991 200.735458,285.001526 203.987549,286.481506 
	C203.675842,286.645111 202.881821,287.061859 201.614777,287.801208 
	C197.891052,289.111298 194.640381,290.098816 191.389725,291.086304 
z"/>
<path fill="#EA9A24" opacity="1.000000" stroke="none" 
	d="
M236.045349,178.960724 
	C234.040543,178.806961 232.577347,178.559830 232.715012,175.713638 
	C233.001724,169.786179 232.801712,163.835190 232.801712,157.644958 
	C247.222244,157.644958 261.810730,157.644958 276.274963,157.644958 
	C276.014313,158.171295 275.607147,158.993469 275.604370,159.913986 
	C276.008759,160.012314 276.058960,159.991409 275.934631,159.508102 
	C274.522095,160.008041 273.233826,160.991272 271.945557,161.974503 
	C271.945557,161.974503 271.992920,162.003830 271.686523,161.730225 
	C260.136230,166.791428 248.887848,172.116821 237.660065,177.485291 
	C237.014404,177.794006 236.536591,178.453812 235.980682,178.950226 
	C235.980682,178.950226 236.030807,178.988693 236.045349,178.960724 
z"/>
<path fill="#CB2B25" opacity="1.000000" stroke="none" 
	d="
M191.417114,291.437836 
	C194.640381,290.098816 197.891052,289.111298 201.504166,288.085388 
	C203.410629,288.087433 204.993439,288.369659 206.492416,288.129211 
	C216.668808,286.496948 226.820389,284.709991 236.995804,283.071198 
	C240.617523,282.487946 243.097946,284.147675 244.438446,287.535034 
	C246.280685,292.190155 244.232208,295.354797 239.260284,295.364319 
	C223.598969,295.394348 207.937531,295.376892 192.276154,295.359283 
	C190.984909,295.357819 189.693832,295.216492 188.207794,295.128632 
	C189.474625,293.821655 190.459564,292.805511 191.417114,291.437836 
z"/>
<path fill="#ED9C23" opacity="1.000000" stroke="none" 
	d="
M278.978973,163.997086 
	C280.834015,161.608673 282.796570,159.248856 284.550079,156.742783 
	C285.813721,154.936813 287.006805,153.676071 289.548889,155.358856 
	C289.938110,155.240082 289.882782,155.117325 289.843872,155.499710 
	C290.849335,156.308884 291.893738,156.735672 292.939911,157.119904 
	C292.941681,157.077362 292.856506,157.077377 292.745056,157.442505 
	C293.064514,157.915253 293.495392,158.022858 293.942139,158.077850 
	C293.958008,158.025238 293.891418,158.112701 293.843079,158.464264 
	C295.173584,159.587585 296.552399,160.359360 297.947266,161.089508 
	C297.963318,161.047913 297.889557,161.098099 297.901428,161.461456 
	C298.915710,162.265442 299.918121,162.706070 300.846802,163.156342 
	C300.773102,163.165985 300.797882,163.312561 300.797882,163.312561 
	C302.309296,169.848541 298.024139,176.470428 290.512665,179.010056 
	C287.693268,179.963287 284.727020,180.495163 281.935852,181.515060 
	C279.175049,182.523849 276.550659,183.905960 272.724304,185.642715 
	C274.471527,179.496933 276.017792,174.058029 277.312195,168.291229 
	C277.060303,167.963318 276.997040,167.995850 277.401825,168.055878 
	C278.226227,166.743286 278.645874,165.370667 279.065491,163.998062 
	C279.065491,163.998062 278.996979,163.963074 278.978973,163.997086 
z"/>
<path fill="#5B5B56" opacity="1.000000" stroke="none" 
	d="
M287.079895,266.914612 
	C284.709930,260.520935 282.112244,254.196457 280.133179,247.683975 
	C279.650085,246.094284 281.196106,243.887970 282.397705,241.576508 
	C289.686157,238.377579 296.386108,235.567307 303.444946,232.763489 
	C305.204895,232.505844 306.605957,232.241760 307.980072,232.326569 
	C304.023041,237.662018 299.934509,242.536804 296.279297,247.717270 
	C295.414307,248.943176 296.004547,251.195847 296.157349,253.222946 
	C295.962067,257.212433 295.534821,260.955200 294.798492,264.947754 
	C294.786621,268.012268 295.083893,270.826996 295.242981,273.776611 
	C295.104828,273.911560 294.833008,274.185913 294.539856,274.027039 
	C291.857758,271.550293 289.468811,269.232452 287.079895,266.914612 
z"/>
<path fill="#CB2B25" opacity="1.000000" stroke="none" 
	d="
M246.699432,271.975372 
	C246.695221,270.918152 246.691010,269.860901 246.847504,268.072083 
	C247.670456,264.712524 248.332703,262.084564 249.211731,258.596344 
	C252.118286,263.288727 254.509491,267.149109 256.900696,271.009491 
	C259.781677,275.752594 261.831207,281.037750 267.819031,283.316772 
	C269.309509,283.884064 270.472321,287.368500 270.397430,289.462463 
	C270.307556,291.976410 269.010315,294.725433 265.420685,294.448853 
	C265.256226,294.436157 265.088928,294.453979 264.923279,294.462891 
	C250.409637,295.242859 250.411316,295.242676 248.194336,280.740570 
	C247.843353,278.444733 247.469620,276.152405 246.999634,273.169312 
	C246.828384,272.311890 246.763901,272.143616 246.699432,271.975372 
z"/>
<path fill="#191C16" opacity="1.000000" stroke="none" 
	d="
M286.955139,267.166687 
	C289.468811,269.232452 291.857758,271.550293 294.659515,274.168396 
	C295.218292,274.476715 295.364197,274.484802 295.510132,274.492889 
	C295.467133,274.209167 295.424133,273.925415 295.381165,273.641693 
	C295.083893,270.826996 294.786621,268.012268 295.082184,265.187164 
	C296.492645,267.629120 297.310333,270.081482 298.414703,273.393707 
	C298.709167,272.005219 298.858276,271.583466 298.880859,271.155060 
	C299.795319,253.802872 312.435455,243.645981 329.599182,246.400650 
	C330.740662,246.583847 331.985352,246.124039 333.182037,245.963318 
	C335.339386,247.921570 337.496765,249.879807 339.914185,251.913910 
	C340.174225,251.989792 340.053680,251.907211 340.051636,252.296356 
	C340.150055,255.489899 340.250519,258.294281 340.263123,260.710815 
	C339.687042,254.062073 335.520111,250.935684 330.170471,249.238235 
	C316.296692,244.836105 301.438019,255.735748 301.169525,270.341461 
	C301.040527,277.360443 302.464752,279.101105 309.370789,280.501617 
	C311.487854,280.930908 313.685394,281.224274 315.662842,282.029785 
	C320.560150,284.024658 324.667694,282.385834 328.850830,279.927216 
	C335.037842,276.290833 337.746460,270.314728 340.306091,264.266907 
	C340.960114,265.289948 341.437775,266.092682 341.971832,266.952209 
	C342.028198,267.009033 342.147095,267.116150 342.152649,267.252228 
	C342.158173,267.388306 342.088654,267.651672 341.848114,267.940125 
	C338.211578,275.970825 332.613495,281.584167 324.622101,284.883789 
	C324.821472,285.517731 325.020844,286.151672 325.220184,286.785645 
	C329.738281,286.122101 334.256378,285.458557 338.852173,285.245911 
	C338.974487,285.998596 339.019104,286.300354 338.778442,286.797333 
	C335.919006,287.698792 333.344788,288.405060 330.561554,289.168640 
	C331.130402,290.328613 331.544861,291.173737 331.959290,292.018921 
	C331.356537,292.035889 330.753815,292.052856 329.547852,291.836456 
	C322.326447,286.161346 314.550903,283.713776 306.192047,282.632507 
	C298.659363,281.658081 296.078949,284.235291 297.322174,291.762329 
	C296.903900,291.834167 296.485657,291.905975 295.516113,291.706177 
	C295.464508,287.796448 295.964142,284.158325 296.630249,279.308289 
	C293.947144,276.838257 289.945282,273.154205 285.943420,269.470184 
	C286.239075,268.786346 286.534729,268.102539 286.955139,267.166687 
z"/>
<path fill="#757C71" opacity="1.000000" stroke="none" 
	d="
M333.011414,245.668381 
	C331.985352,246.124039 330.740662,246.583847 329.599182,246.400650 
	C312.435455,243.645981 299.795319,253.802872 298.880859,271.155060 
	C298.858276,271.583466 298.709167,272.005219 298.414703,273.393707 
	C297.310333,270.081482 296.492645,267.629120 295.391296,264.937378 
	C295.534821,260.955200 295.962067,257.212433 296.307281,252.907684 
	C299.774933,244.483063 305.199677,238.170181 312.130157,233.101761 
	C318.339935,232.320679 321.792236,237.491425 326.489899,239.918610 
	C328.902313,241.165039 330.742157,243.519623 333.011414,245.668381 
z"/>
<path fill="#929A8A" opacity="1.000000" stroke="none" 
	d="
M293.928131,364.901855 
	C294.430328,365.605988 294.886505,365.924683 295.342651,366.243408 
	C295.629211,364.621826 295.915741,363.000275 296.293915,360.860107 
	C298.375488,360.986176 300.449799,361.111816 303.301422,361.284485 
	C302.177368,367.907379 301.107574,374.210693 300.009888,380.678284 
	C297.223145,380.678284 294.760773,380.678284 292.082001,380.678284 
	C291.623505,378.938538 291.164001,377.194977 290.470184,374.562378 
	C289.638855,376.795685 289.066956,378.332031 288.498749,379.858459 
	C280.701721,381.075012 280.680786,381.078644 279.371002,373.502808 
	C278.697174,369.605316 278.113434,365.692230 277.413666,361.314911 
	C279.938446,361.118988 282.007324,360.958435 284.284576,360.781677 
	C284.706024,362.994537 285.057251,364.838654 285.408478,366.682770 
	C285.638550,366.704498 285.868591,366.726196 286.098663,366.747925 
	C286.591492,364.911011 287.084320,363.074097 287.593750,361.175293 
	C290.794525,360.263184 293.642975,359.892395 293.928131,364.901855 
z"/>
<path fill="#C32C27" opacity="1.000000" stroke="none" 
	d="
M233.859451,231.403778 
	C234.972275,232.152710 236.085083,232.901657 237.395294,234.254990 
	C244.843719,244.482925 247.390732,255.205551 245.115036,267.054962 
	C239.591965,282.613068 236.014359,281.143738 221.689560,282.522491 
	C222.161087,281.662598 222.493164,281.057007 222.848724,279.914886 
	C224.932159,277.694916 226.992096,276.011505 229.413635,274.274689 
	C230.507889,273.880127 231.414413,273.710876 231.947235,273.172089 
	C240.666656,264.355072 241.448456,245.761353 233.467468,235.529480 
	C233.380997,233.917191 230.088974,232.205048 233.859451,231.403778 
z"/>
<path fill="#393F38" opacity="1.000000" stroke="none" 
	d="
M325.355408,221.174896 
	C326.154999,228.084335 321.160828,229.228836 316.186920,230.297501 
	C314.441528,230.672501 312.631470,230.746429 310.427673,230.980560 
	C310.004456,231.003311 310.022308,230.989929 309.813324,230.732330 
	C308.405151,229.935532 307.205933,229.396362 305.915588,228.538757 
	C300.197906,224.524002 295.103516,220.319290 292.231598,213.991440 
	C292.201141,213.581711 292.170685,213.171967 292.506470,212.483002 
	C302.516479,214.869858 312.214661,216.471725 322.136383,213.699310 
	C322.513947,213.789719 322.891479,213.880112 323.573608,214.461914 
	C324.370575,217.027191 324.862976,219.101044 325.355408,221.174896 
z"/>
<path fill="#ED9C23" opacity="1.000000" stroke="none" 
	d="
M156.314850,265.885437 
	C155.801910,263.679504 155.493835,261.399994 154.733276,259.283051 
	C153.165375,254.918976 155.019348,252.377884 158.804871,250.576767 
	C163.750381,248.223709 168.729980,247.673965 173.454910,250.829239 
	C177.534073,253.553284 179.905075,257.348358 179.272446,262.223267 
	C174.367523,262.869080 169.729523,263.479736 165.008087,264.528992 
	C164.924622,264.967560 164.995193,264.904388 164.675262,264.643860 
	C162.720215,265.236267 161.085098,266.089233 159.470093,266.971191 
	C159.490219,267.000183 159.470627,266.932800 159.100861,266.962891 
	C157.864456,266.625671 156.997818,266.258362 156.178314,265.929504 
	C156.225449,265.967987 156.314850,265.885437 156.314850,265.885437 
z"/>
<path fill="#5B5B56" opacity="1.000000" stroke="none" 
	d="
M322.041901,203.687164 
	C322.205994,204.006790 322.370087,204.326416 322.768982,205.125183 
	C323.003784,205.604340 322.997284,205.556320 322.997284,205.556320 
	C323.153870,206.404129 323.310425,207.251953 323.195740,208.685623 
	C322.577789,210.087128 322.231079,210.902771 321.884399,211.718430 
	C321.884399,211.718430 321.960297,211.862076 321.516052,211.907883 
	C311.258972,212.353027 301.410767,213.084610 292.088989,208.869476 
	C293.570374,206.104416 295.051727,203.339340 297.109161,200.590332 
	C299.922668,200.221802 302.146515,199.665329 304.400269,199.486969 
	C309.752594,199.063385 315.170654,198.507111 319.899139,202.015228 
	C320.473694,202.387634 321.048279,202.760025 321.845337,203.398834 
	C322.067841,203.665237 322.041901,203.687164 322.041901,203.687164 
z"/>
<path fill="#C32C27" opacity="1.000000" stroke="none" 
	d="
M146.940063,278.064087 
	C146.615021,275.742096 146.468918,273.353394 146.000763,271.029541 
	C144.635696,264.253571 146.295044,258.398804 150.702042,253.045868 
	C152.416397,257.682434 153.976181,261.900940 155.925415,266.002441 
	C156.314850,265.885437 156.225449,265.967987 155.949554,266.271149 
	C156.480774,267.554047 157.287857,268.533813 158.056213,269.505798 
	C158.017471,269.498016 158.033569,269.420654 157.984406,269.853516 
	C158.313751,270.708618 158.692276,271.130859 159.349960,271.358704 
	C160.769745,272.248657 161.910370,273.333038 163.004349,274.822723 
	C164.331085,275.803131 165.704468,276.378235 167.030731,276.950012 
	C166.983612,276.946625 166.985748,276.852142 166.985748,276.852142 
	C167.942474,278.186676 168.899185,279.521210 169.731018,280.681549 
	C162.391083,283.063324 154.984833,280.123596 147.218719,277.815125 
	C146.900406,278.093689 146.971893,278.027008 146.940063,278.064087 
z"/>
<path fill="#8E9687" opacity="1.000000" stroke="none" 
	d="
M188.305145,377.753174 
	C187.803329,376.699524 187.445404,375.993469 186.598862,374.323639 
	C186.039291,376.845215 185.682480,378.453094 185.254700,380.380798 
	C183.506989,380.380798 181.766022,380.380798 179.708710,380.380798 
	C179.708710,374.639465 179.686569,368.884369 179.742416,363.130035 
	C179.748093,362.544037 180.079712,361.815460 180.503677,361.404144 
	C182.471771,359.495056 190.852386,359.826050 193.360031,362.013855 
	C196.618256,364.856659 196.463470,368.034210 194.746033,371.893616 
	C193.824173,373.965210 194.582199,376.784302 194.582199,379.558044 
	C192.913574,379.407532 189.995651,382.767181 188.305145,377.753174 
z"/>
<path fill="#EA9A24" opacity="1.000000" stroke="none" 
	d="
M243.052551,142.553680 
	C241.148666,144.578049 239.244812,146.602417 237.333939,148.656403 
	C236.042648,148.521530 234.758392,148.357040 232.804184,148.106750 
	C233.542130,139.857285 234.453003,131.410950 238.252823,123.520302 
	C239.747559,120.416344 242.120209,120.101822 244.063736,122.567657 
	C246.696915,125.908493 248.710968,129.737320 251.043213,133.962494 
	C251.073776,134.737473 251.051743,134.906754 250.677750,135.083618 
	C249.225403,136.086761 248.125000,137.082291 247.024597,138.077820 
	C247.024597,138.077820 247.013779,138.013519 246.623917,137.904999 
	C244.934784,138.778259 243.584442,139.704681 242.393219,140.803589 
	C242.221222,140.962265 242.813797,141.949738 243.052551,142.553680 
z"/>
<path fill="#2D1202" opacity="1.000000" stroke="none" 
	d="
M245.313553,267.156799 
	C247.390732,255.205551 244.843719,244.482925 237.575592,234.486679 
	C238.306839,234.185043 239.055191,234.256104 239.595703,234.307419 
	C236.713058,219.171417 233.833755,204.052917 230.962952,188.509628 
	C231.482101,186.923035 231.992752,185.761246 232.752731,184.451279 
	C235.972153,214.658783 243.704620,243.590912 258.793701,270.685547 
	C258.428619,271.029266 257.992065,271.032776 257.228088,271.022888 
	C254.509491,267.149109 252.118286,263.288727 249.211731,258.596344 
	C248.332703,262.084564 247.670456,264.712524 246.812607,267.676636 
	C246.248688,267.761353 245.880386,267.509979 245.313553,267.156799 
z"/>
<path fill="#8E9687" opacity="1.000000" stroke="none" 
	d="
M202.273712,372.923340 
	C202.281891,368.672882 202.281891,364.902191 202.281891,360.826050 
	C207.174744,360.826050 211.219254,360.826050 217.001114,360.826050 
	C215.115616,363.774109 212.341599,366.351685 212.847946,367.645905 
	C214.438202,371.710632 212.456085,372.573792 209.333054,373.687775 
	C210.968231,373.973633 212.603409,374.259521 214.458435,374.583832 
	C214.458435,376.426636 214.458435,378.178040 214.458435,380.386414 
	C210.480484,380.386414 206.752182,380.386414 202.265549,380.386414 
	C202.265549,378.211212 202.265549,375.807190 202.273712,372.923340 
z"/>
<path fill="#8E9687" opacity="1.000000" stroke="none" 
	d="
M321.577576,377.855469 
	C320.748993,379.083649 320.005280,380.532867 319.133270,380.614655 
	C316.042175,380.904663 312.907227,380.727722 309.515381,380.727722 
	C309.515381,374.551758 309.418274,368.654053 309.631897,362.767578 
	C309.660278,361.986206 311.221558,360.690796 312.152985,360.614838 
	C315.417084,360.348541 318.716248,360.511566 323.357056,360.511566 
	C322.129883,363.327728 321.276642,365.285706 320.063751,368.069122 
	C321.624176,370.490082 320.448700,372.560455 315.604187,373.003876 
	C317.775055,375.086243 322.698730,372.532867 321.577576,377.855469 
z"/>
<path fill="#929A8A" opacity="1.000000" stroke="none" 
	d="
M233.380920,360.877777 
	C235.201309,360.960297 236.663681,361.074677 238.827133,361.243927 
	C237.226929,367.316895 235.900391,373.087921 234.061096,378.690613 
	C233.706360,379.771210 231.338013,380.766541 229.908234,380.753296 
	C228.532043,380.740570 226.369370,379.676758 225.935287,378.544495 
	C223.869171,373.155304 222.274780,367.585266 220.278412,361.348175 
	C222.811371,361.146118 224.835281,360.984680 226.980713,360.813538 
	C227.808304,363.652710 228.539459,366.161133 229.457748,369.311493 
	C230.816650,366.109009 231.919769,363.509338 233.380920,360.877777 
z"/>
<path fill="#5B5B56" opacity="1.000000" stroke="none" 
	d="
M297.638245,292.024841 
	C296.078949,284.235291 298.659363,281.658081 306.192047,282.632507 
	C314.550903,283.713776 322.326447,286.161346 329.247375,291.811249 
	C328.941376,292.489594 328.330261,293.371826 327.724335,293.368286 
	C318.234711,293.312897 308.745605,293.152435 299.257233,292.970428 
	C298.818726,292.962067 298.388428,292.524811 297.638245,292.024841 
z"/>
<path fill="#929A8A" opacity="1.000000" stroke="none" 
	d="
M270.729736,379.609192 
	C266.838165,380.382904 263.093079,380.746735 259.010864,381.143372 
	C259.010864,374.139893 259.010864,367.721466 259.010864,360.917755 
	C263.356415,360.917755 267.424377,360.917755 272.982727,360.917755 
	C270.904388,365.677094 269.063293,369.893127 267.272308,373.994476 
	C267.477203,374.025299 268.911133,374.240936 270.876221,374.536499 
	C270.876221,376.051147 270.876221,377.625244 270.729736,379.609192 
z"/>
<path fill="#929A8A" opacity="1.000000" stroke="none" 
	d="
M281.754089,231.948776 
	C284.597168,226.423782 287.440277,220.898788 290.615784,215.656357 
	C293.657562,222.012802 297.642517,226.797089 304.323700,229.354568 
	C303.993988,230.156769 303.507202,230.618881 302.621246,231.048019 
	C295.468506,233.942062 288.714935,236.869095 281.961365,239.796143 
	C281.517670,239.939240 281.073944,240.082321 280.348999,239.825165 
	C280.629913,236.932861 281.192017,234.440826 281.754089,231.948776 
z"/>
<path fill="#5B5B56" opacity="1.000000" stroke="none" 
	d="
M285.917328,269.931458 
	C289.945282,273.154205 293.947144,276.838257 296.630249,279.308289 
	C295.964142,284.158325 295.464508,287.796448 295.200378,291.746429 
	C291.915344,292.315491 288.266022,293.268311 284.908173,292.646729 
	C281.064301,291.935181 279.140533,284.228607 282.459351,282.402252 
	C288.320068,279.177032 286.073547,274.730621 285.917328,269.931458 
z"/>
<path fill="#EA9A24" opacity="1.000000" stroke="none" 
	d="
M229.052017,274.328064 
	C226.992096,276.011505 224.932159,277.694916 222.827515,279.552704 
	C218.143570,280.927155 213.547470,282.842743 208.852966,283.125732 
	C204.170700,283.407990 199.389786,282.053925 194.306503,281.667877 
	C193.960876,281.918488 193.985306,281.983917 194.021088,281.586609 
	C192.704941,280.770905 191.353012,280.352509 190.001099,279.934143 
	C190.001099,279.934143 190.002701,279.994965 190.107178,279.593506 
	C189.143967,278.773468 188.076263,278.354858 187.008575,277.936279 
	C187.008575,277.936279 187.002670,278.001099 187.171677,277.638367 
	C186.896133,277.160522 186.451584,277.045349 186.007034,276.930176 
	C186.007034,276.930176 185.976593,277.000000 186.011261,277.015656 
	C185.594193,268.898590 184.488083,260.734619 184.874588,252.641937 
	C185.261810,244.534332 189.521378,237.923981 196.668121,233.359528 
	C197.009933,233.521759 197.032761,234.017929 196.837860,234.292603 
	C186.211441,242.823196 184.971252,254.403183 185.475845,266.415680 
	C185.643051,270.396729 185.683350,274.847961 190.042877,277.343323 
	C197.701294,281.726929 205.829575,283.977234 214.299835,280.701904 
	C219.571503,278.663422 224.323303,275.280518 229.177429,272.792908 
	C229.048294,273.499237 229.050156,273.913666 229.052017,274.328064 
z"/>
<path fill="#BB2B29" opacity="1.000000" stroke="none" 
	d="
M336.880737,373.350891 
	C335.829346,371.883514 334.878265,370.751556 334.021973,369.732361 
	C336.723602,367.777679 339.355408,365.873535 341.946808,363.998596 
	C343.951080,365.553864 346.514313,367.542847 349.033020,369.497253 
	C348.203827,371.859589 347.171173,374.801666 346.200867,377.566101 
	C343.505096,377.566101 340.268951,377.566101 336.705231,377.566101 
	C336.778046,376.542206 336.879547,375.114288 336.880737,373.350891 
z"/>
<path fill="#BB2B29" opacity="1.000000" stroke="none" 
	d="
M155.302322,374.257202 
	C154.381302,372.364532 153.466309,370.841766 152.734070,369.623108 
	C155.319458,367.679718 157.892593,365.745575 160.413391,363.850769 
	C162.353165,365.445648 164.827911,367.480347 167.290115,369.504761 
	C166.518250,371.839111 165.509476,374.889893 164.635681,377.532471 
	C161.944901,377.532471 158.988678,377.532471 155.466873,377.532471 
	C155.437851,377.000641 155.373093,375.813843 155.302322,374.257202 
z"/>
<path fill="#5B5B56" opacity="1.000000" stroke="none" 
	d="
M332.231689,292.270905 
	C331.544861,291.173737 331.130402,290.328613 330.561554,289.168640 
	C333.344788,288.405060 335.919006,287.698792 339.165710,286.748596 
	C342.061432,285.352081 344.284637,284.199493 346.500031,283.021423 
	C346.492218,282.995941 346.460938,283.039093 346.860779,283.121765 
	C348.691223,282.132446 350.121857,281.060455 351.796631,280.043762 
	C352.868134,279.760620 353.695496,279.422241 354.522827,279.083862 
	C354.908081,279.238281 355.640442,279.426819 355.629089,279.542267 
	C354.802124,287.957428 340.172394,296.145721 332.231689,292.270905 
z"/>
<path fill="#939B8C" opacity="1.000000" stroke="none" 
	d="
M244.691711,374.674805 
	C244.692215,370.083221 244.692215,365.947357 244.692215,361.398315 
	C247.252838,361.285522 249.362900,361.192596 252.272720,361.064423 
	C251.808823,367.496002 251.363693,373.667542 250.900223,380.093109 
	C248.738815,380.191010 246.962692,380.271454 244.691193,380.374329 
	C244.691193,378.391510 244.691193,376.760986 244.691711,374.674805 
z"/>
<path fill="#4D4E49" opacity="1.000000" stroke="none" 
	d="
M346.460938,283.039093 
	C346.460938,283.039093 346.492218,282.995941 346.490784,282.661316 
	C347.392700,280.250214 349.027588,278.182953 349.053833,276.095428 
	C349.117096,271.065613 348.427551,266.026367 348.033752,260.887878 
	C347.952637,260.887878 349.026001,260.887878 350.071625,260.915283 
	C350.043884,260.942688 350.039764,260.864807 350.114899,261.208496 
	C350.819305,261.681885 351.448608,261.811584 352.034180,261.928406 
	C351.990448,261.915466 352.016571,261.828064 352.016571,261.828064 
	C352.163513,262.564728 352.048950,263.641083 352.497314,263.986237 
	C357.802094,268.070190 358.528046,272.750610 354.558838,278.622681 
	C353.695496,279.422241 352.868134,279.760620 351.416931,280.089386 
	C349.348999,281.066193 347.904968,282.052643 346.460938,283.039093 
z"/>
<path fill="#5B5B56" opacity="1.000000" stroke="none" 
	d="
M340.229919,251.942474 
	C340.195251,249.269226 339.423370,246.424408 340.179443,244.070328 
	C341.229553,240.800629 343.137665,237.665863 345.308167,234.982742 
	C345.955139,234.182922 348.712952,235.090637 350.503601,235.216003 
	C350.282959,236.957153 350.526947,238.956879 349.734955,240.380081 
	C348.483978,242.628098 346.537994,244.489349 344.947510,246.806717 
	C345.008850,247.099152 345.131989,247.023911 344.795258,247.117874 
	C344.334229,247.835205 344.209961,248.458557 344.067780,249.052399 
	C344.049866,249.022858 344.118073,249.011902 343.760834,249.147888 
	C343.297821,250.212662 343.192047,251.141464 343.090088,252.070770 
	C343.093933,252.071289 343.105499,252.088348 342.768250,251.862839 
	C341.638550,251.727295 340.846100,251.817261 340.053680,251.907211 
	C340.053680,251.907211 340.174225,251.989792 340.229919,251.942474 
z"/>
<path fill="#E36026" opacity="1.000000" stroke="none" 
	d="
M251.029709,135.076019 
	C251.051743,134.906754 251.073776,134.737473 251.148499,134.318939 
	C252.644180,132.635864 254.135529,131.246979 255.518951,129.757812 
	C257.614777,127.501823 259.635529,125.176079 261.795013,122.760460 
	C266.045441,126.093536 265.442566,130.270065 265.818695,134.522430 
	C261.198212,135.234482 256.617920,135.527542 251.554596,135.637985 
	C251.071518,135.455368 251.029709,135.076019 251.029709,135.076019 
z"/>
<path fill="#2D1202" opacity="1.000000" stroke="none" 
	d="
M241.103134,186.120651 
	C243.418411,189.425217 245.998016,192.578506 247.993835,196.065887 
	C252.128281,203.290207 255.952438,210.692078 259.916565,218.392761 
	C259.000366,217.706146 257.753113,216.793289 257.192871,215.566620 
	C251.937775,204.060501 244.377289,194.287735 234.977768,185.452881 
	C234.904907,180.938431 238.640808,184.478500 240.175079,182.583618 
	C240.446228,182.401047 240.470825,182.418396 240.369141,182.773788 
	C240.447678,183.986099 240.627914,184.843018 240.881714,185.805237 
	C240.955307,185.910522 241.103134,186.120651 241.103134,186.120651 
z"/>
<path fill="#959D8D" opacity="1.000000" stroke="none" 
	d="
M314.223083,189.119415 
	C314.176971,191.468536 314.130859,193.817673 313.472534,196.479279 
	C309.043152,196.908127 305.225983,197.024475 301.408844,197.140823 
	C303.716278,194.014297 305.806610,190.684708 308.443054,187.865952 
	C309.431702,186.808990 311.687164,186.924988 313.378235,186.568909 
	C313.471863,186.549194 313.686768,187.105576 313.922638,187.984329 
	C314.074402,188.756363 314.148743,188.937881 314.223083,189.119415 
z"/>
<path fill="#E36026" opacity="1.000000" stroke="none" 
	d="
M163.051010,274.417419 
	C161.910370,273.333038 160.769745,272.248657 159.714676,270.888306 
	C159.211349,270.215149 158.622452,269.817902 158.033569,269.420654 
	C158.033569,269.420654 158.017471,269.498016 158.597748,269.410339 
	C159.275558,268.526062 159.373093,267.729431 159.470642,266.932800 
	C159.470627,266.932800 159.490219,267.000183 159.541687,267.508087 
	C161.393829,266.978790 163.194504,265.941589 164.995193,264.904388 
	C164.995193,264.904388 164.924622,264.967560 164.896881,264.928497 
	C167.576096,265.138611 170.283020,265.387756 172.534821,265.595032 
	C170.573868,269.441010 168.859848,272.802643 167.065796,276.508240 
	C166.985748,276.852142 166.983612,276.946625 167.081650,276.551819 
	C165.803467,275.577179 164.427231,274.997314 163.051010,274.417419 
z"/>
<path fill="#4D4E49" opacity="1.000000" stroke="none" 
	d="
M300.958008,197.440033 
	C305.225983,197.024475 309.043152,196.908127 313.290527,196.884583 
	C317.446045,195.930649 321.171326,194.883911 325.388428,193.699005 
	C325.425201,198.462128 323.700287,200.562576 320.100403,201.713104 
	C315.170654,198.507111 309.752594,199.063385 304.400269,199.486969 
	C302.146515,199.665329 299.922668,200.221802 297.426208,200.520233 
	C298.280487,199.535797 299.393829,198.637527 300.958008,197.440033 
z"/>
<path fill="#8E9687" opacity="1.000000" stroke="none" 
	d="
M345.041626,247.163422 
	C345.664398,247.329697 346.591644,247.228516 346.793854,247.564148 
	C349.862274,252.657089 352.835724,257.807251 355.831390,262.944031 
	C355.454193,263.190582 355.076965,263.437103 354.699768,263.683624 
	C354.031738,263.130829 353.363708,262.578003 352.356140,261.926636 
	C352.016571,261.828064 351.990448,261.915466 351.902863,261.618256 
	C351.223450,261.168976 350.631592,261.016876 350.039764,260.864807 
	C350.039764,260.864807 350.043884,260.942688 350.055420,260.557434 
	C347.616943,257.589142 342.352386,257.429779 343.105499,252.088348 
	C343.105499,252.088348 343.093933,252.071289 343.421448,251.918640 
	C343.872009,250.847946 343.995056,249.929932 344.118073,249.011902 
	C344.118073,249.011902 344.049866,249.022858 344.419830,248.960388 
	C344.903870,248.273239 345.017944,247.648575 345.131989,247.023911 
	C345.131989,247.023911 345.008850,247.099152 345.041626,247.163422 
z"/>
<path fill="#191C16" opacity="1.000000" stroke="none" 
	d="
M292.070251,209.278290 
	C301.410767,213.084610 311.258972,212.353027 321.540192,211.985474 
	C322.033478,212.392639 322.058380,212.768051 322.109833,213.421387 
	C312.214661,216.471725 302.516479,214.869858 292.501953,212.174744 
	C292.104614,211.326202 292.078033,210.506653 292.070251,209.278290 
z"/>
<path fill="#BB2B29" opacity="1.000000" stroke="none" 
	d="
M289.876587,155.267395 
	C290.617554,154.423828 291.561493,152.715286 292.198853,152.822861 
	C295.469055,153.374832 298.942230,153.917435 301.702301,155.549408 
	C302.499023,156.020493 301.165833,160.093719 300.803528,162.914032 
	C300.797882,163.312561 300.773102,163.165985 300.946503,162.770691 
	C300.043121,161.949615 298.966339,161.523849 297.889557,161.098099 
	C297.889557,161.098099 297.963318,161.047913 298.030884,160.715393 
	C296.696136,159.626160 295.293793,158.869431 293.891418,158.112701 
	C293.891418,158.112701 293.958008,158.025238 294.014191,157.734100 
	C293.665741,157.321091 293.261139,157.199234 292.856506,157.077393 
	C292.856506,157.077377 292.941681,157.077362 292.977783,156.736450 
	C291.970215,155.969467 290.926483,155.543396 289.882782,155.117325 
	C289.882782,155.117325 289.938110,155.240082 289.876587,155.267395 
z"/>
<path fill="#191C16" opacity="1.000000" stroke="none" 
	d="
M311.870270,232.941345 
	C305.199677,238.170181 299.774933,244.483063 296.075317,252.660950 
	C296.004547,251.195847 295.414307,248.943176 296.279297,247.717270 
	C299.934509,242.536804 304.023041,237.662018 308.179565,232.116943 
	C308.944733,231.368896 309.483521,231.179413 310.022308,230.989929 
	C310.022308,230.989929 310.004456,231.003311 310.003662,230.990173 
	C310.538696,231.578323 311.074554,232.179626 311.870270,232.941345 
z"/>
<path fill="#191C16" opacity="1.000000" stroke="none" 
	d="
M282.043640,240.201859 
	C288.714935,236.869095 295.468506,233.942062 302.630035,231.327759 
	C303.054016,232.012680 303.070007,232.384857 303.085999,232.757034 
	C296.386108,235.567307 289.686157,238.377579 282.654053,241.299927 
	C282.256531,241.143845 282.191223,240.875717 282.043640,240.201859 
z"/>
<path fill="#2D1202" opacity="1.000000" stroke="none" 
	d="
M261.757294,228.416916 
	C262.514740,228.454697 264.013885,228.758316 264.136414,229.348007 
	C265.227234,234.597061 266.074768,239.896667 266.933258,245.619202 
	C266.407959,249.811050 265.943420,253.565079 265.262787,257.659912 
	C263.984650,248.272324 262.922607,238.543869 261.757294,228.416916 
z"/>
<path fill="#191C16" opacity="1.000000" stroke="none" 
	d="
M304.166626,229.014496 
	C297.642517,226.797089 293.657562,222.012802 290.931274,215.590942 
	C291.182281,214.938614 291.450256,214.634247 291.974915,214.160660 
	C295.103516,220.319290 300.197906,224.524002 305.930145,228.779022 
	C306.035828,229.337692 306.028839,229.816177 305.897400,229.885254 
	C305.765930,229.954315 305.478271,230.028015 305.259766,229.985336 
	C304.749725,229.633270 304.458160,229.323883 304.166626,229.014496 
z"/>
<path fill="#2D1202" opacity="1.000000" stroke="none" 
	d="
M206.964325,225.851028 
	C211.594284,225.164505 216.529068,224.606750 221.463852,224.048996 
	C221.547958,224.849365 221.632065,225.649750 221.716187,226.450119 
	C217.777649,226.642136 213.839127,226.834167 209.437424,226.988434 
	C208.405884,226.627060 207.837524,226.303421 206.964325,225.851028 
z"/>
<path fill="#191C16" opacity="1.000000" stroke="none" 
	d="
M325.664001,221.086029 
	C324.862976,219.101044 324.370575,217.027191 323.846741,214.563904 
	C325.579926,214.656937 327.344513,215.139404 329.109100,215.621887 
	C328.063599,217.413635 327.018097,219.205399 325.664001,221.086029 
z"/>
<path fill="#191C16" opacity="1.000000" stroke="none" 
	d="
M281.452454,231.984024 
	C281.192017,234.440826 280.629913,236.932861 279.999634,239.808685 
	C279.426239,239.893845 278.921051,239.595230 278.258331,239.162872 
	C278.065674,234.339783 278.030579,229.650467 278.055023,224.503204 
	C278.440613,225.927200 278.599884,227.861099 279.163300,229.669067 
	C279.444458,230.571304 280.464783,231.243195 281.452454,231.984024 
z"/>
<path fill="#2D1202" opacity="1.000000" stroke="none" 
	d="
M258.783569,323.725464 
	C255.934998,323.871613 252.978973,323.706207 250.022949,323.540802 
	C250.044022,322.807556 250.065094,322.074310 250.086182,321.341034 
	C252.421844,321.127014 254.757507,320.912994 257.527100,320.787964 
	C258.199402,321.722656 258.437744,322.568268 258.783569,323.725464 
z"/>
<path fill="#4D4E49" opacity="1.000000" stroke="none" 
	d="
M322.206177,211.691650 
	C322.231079,210.902771 322.577789,210.087128 323.138245,209.114014 
	C323.077332,209.859314 322.802643,210.762100 322.206177,211.691650 
z"/>
<path fill="#2D1202" opacity="1.000000" stroke="none" 
	d="
M246.604767,272.104797 
	C246.763901,272.143616 246.828384,272.311890 246.894226,272.750488 
	C246.573486,272.848175 246.445007,272.585938 246.604767,272.104797 
z"/>
<path fill="#F1AD41" opacity="1.000000" stroke="none" 
	d="
M197.032761,234.017929 
	C197.032761,234.017929 197.009933,233.521759 196.992401,233.274414 
	C196.974869,233.027069 197.201294,232.671005 197.401428,232.604965 
	C197.601562,232.538925 197.818008,232.791443 197.781891,233.103561 
	C197.533386,233.646393 197.295731,233.847137 197.032761,234.017929 
z"/>
<path fill="#4D4E49" opacity="1.000000" stroke="none" 
	d="
M314.312683,188.979279 
	C314.148743,188.937881 314.074402,188.756363 314.009827,188.280792 
	C314.318115,188.187668 314.445709,188.471802 314.312683,188.979279 
z"/>
<path fill="#4D4E49" opacity="1.000000" stroke="none" 
	d="
M323.014099,205.597336 
	C322.997284,205.556320 323.003784,205.604340 322.990326,205.616547 
	C322.976868,205.628738 323.030945,205.638351 323.014099,205.597336 
z"/>
<path fill="#4D4E49" opacity="1.000000" stroke="none" 
	d="
M322.091888,203.698547 
	C322.041901,203.687164 322.067841,203.665237 322.056946,203.674438 
	C322.046082,203.683624 322.141876,203.709915 322.091888,203.698547 
z"/>
<path fill="#110601" opacity="1.000000" stroke="none" 
	d="
M356.005371,329.907654 
	C356.219208,327.204498 356.406555,324.937744 356.633057,322.196808 
	C360.577972,322.848694 362.029663,325.146240 362.215576,328.322205 
	C362.468719,332.648224 360.810730,335.937195 355.978821,337.819977 
	C355.978821,335.065155 355.978821,332.704590 356.005371,329.907654 
z"/>
<path fill="#110601" opacity="1.000000" stroke="none" 
	d="
M320.132141,324.871765 
	C321.985321,325.763062 324.077454,326.368774 324.789490,327.708221 
	C326.336182,330.617493 325.965881,334.068115 322.783142,335.424377 
	C321.208801,336.095245 317.856354,335.035095 316.647919,333.616791 
	C314.099121,330.625397 315.558167,327.340454 320.132141,324.871765 
z"/>
<path fill="#110601" opacity="1.000000" stroke="none" 
	d="
M285.041687,325.816803 
	C285.646545,326.476166 286.239685,326.913940 286.190491,327.260590 
	C285.807190,329.962311 285.697693,332.832458 284.581146,335.218994 
	C284.260406,335.904541 279.787079,335.886871 279.203857,334.952271 
	C277.985931,333.000549 277.271820,330.007355 277.843506,327.834778 
	C278.721771,324.497009 281.738983,324.286682 285.041687,325.816803 
z"/>
<path fill="#110601" opacity="1.000000" stroke="none" 
	d="
M141.810150,322.286438 
	C143.386642,321.779602 145.038712,321.268707 146.408218,321.685699 
	C147.005264,321.867523 147.654572,324.392181 147.173904,325.082092 
	C146.131912,326.577637 144.377335,327.576752 141.770996,329.718079 
	C141.770996,326.177765 141.770996,324.418396 141.810150,322.286438 
z"/>
<path fill="#2D1202" opacity="1.000000" stroke="none" 
	d="
M241.981598,183.062073 
	C249.932556,187.802429 257.883514,192.542786 265.773956,197.766632 
	C265.461761,198.524094 265.210083,198.798065 264.958435,199.072021 
	C257.251770,194.725601 249.545151,190.379181 241.470825,186.076706 
	C241.103134,186.120651 240.955307,185.910522 240.976410,185.534210 
	C241.325531,184.459274 241.653549,183.760666 241.981598,183.062073 
z"/>
<path fill="#010000" opacity="1.000000" stroke="none" 
	d="
M265.194580,199.405579 
	C265.210083,198.798065 265.461761,198.524094 265.925171,198.067963 
	C267.094513,198.694916 268.052063,199.504028 269.012604,200.627411 
	C267.820618,200.540833 266.625671,200.139984 265.194580,199.405579 
z"/>
<path fill="#010000" opacity="1.000000" stroke="none" 
	d="
M243.387573,142.376007 
	C242.813797,141.949738 242.221222,140.962265 242.393219,140.803589 
	C243.584442,139.704681 244.934784,138.778259 246.656219,137.909485 
	C245.959778,139.414444 244.841187,140.806381 243.387573,142.376007 
z"/>
<path fill="#010000" opacity="1.000000" stroke="none" 
	d="
M250.677750,135.083618 
	C251.029709,135.076019 251.071518,135.455368 251.152679,135.626160 
	C249.921844,136.846085 248.609848,137.895218 247.161224,138.511093 
	C248.125000,137.082291 249.225403,136.086761 250.677750,135.083618 
z"/>
<path fill="#F69E1E" opacity="1.000000" stroke="none" 
	d="
M196.837860,234.292603 
	C197.295731,233.847137 197.533386,233.646393 197.888947,233.230804 
	C203.828110,231.356522 209.561737,229.375076 215.450043,228.118256 
	C217.880600,227.599472 220.643143,228.636154 224.009415,229.042709 
	C227.141464,231.450363 229.518799,233.780685 231.975601,236.461639 
	C237.910126,247.161636 238.421341,257.584564 232.211700,268.259033 
	C231.646698,268.967468 231.355652,269.513153 231.032120,270.041351 
	C230.999619,270.023865 231.072464,270.032898 230.872040,270.198700 
	C230.493240,270.660156 230.314865,270.955811 230.132996,271.184540 
	C230.129517,271.117615 230.263550,271.117249 230.040222,271.275635 
	C229.631790,271.745117 229.446686,272.056213 229.300781,272.391113 
	C229.339981,272.414886 229.308426,272.501007 229.308426,272.501007 
	C224.323303,275.280518 219.571503,278.663422 214.299835,280.701904 
	C205.829575,283.977234 197.701294,281.726929 190.042877,277.343323 
	C185.683350,274.847961 185.643051,270.396729 185.475845,266.415680 
	C184.971252,254.403183 186.211441,242.823196 196.837860,234.292603 
z"/>
<path fill="#110601" opacity="1.000000" stroke="none" 
	d="
M231.896133,236.111023 
	C229.518799,233.780685 227.141464,231.450363 224.434906,229.073547 
	C223.630020,228.254471 223.154327,227.481873 222.678635,226.709274 
	C222.986755,226.207138 223.294861,225.705002 223.602966,225.202866 
	C227.052719,227.006241 230.502457,228.809616 233.905823,231.008392 
	C230.088974,232.205048 233.380997,233.917191 233.049164,235.589020 
	C232.451309,236.020187 232.173721,236.065598 231.896133,236.111023 
z"/>
<path fill="#010000" opacity="1.000000" stroke="none" 
	d="
M236.037872,179.449097 
	C236.536591,178.453812 237.014404,177.794006 237.660065,177.485291 
	C248.887848,172.116821 260.136230,166.791428 271.681885,161.702789 
	C271.730530,162.553452 271.640137,163.506180 271.200500,163.711685 
	C259.520660,169.170776 247.804794,174.552811 236.037872,179.449097 
z"/>
<path fill="#010000" opacity="1.000000" stroke="none" 
	d="
M278.660889,163.867767 
	C278.645874,165.370667 278.226227,166.743286 277.418427,168.087326 
	C277.438934,166.618332 277.847626,165.177902 278.660889,163.867767 
z"/>
<path fill="#010000" opacity="1.000000" stroke="none" 
	d="
M272.191711,162.303436 
	C273.233826,160.991272 274.522095,160.008041 275.915894,159.487488 
	C274.826904,160.844254 273.632385,161.738327 272.191711,162.303436 
z"/>
<path fill="#010000" opacity="1.000000" stroke="none" 
	d="
M241.749603,182.914307 
	C241.653549,183.760666 241.325531,184.459274 240.902817,185.428909 
	C240.627914,184.843018 240.447678,183.986099 240.371643,182.788391 
	C240.823105,182.553925 241.170364,182.660248 241.749603,182.914307 
z"/>
<path fill="#010000" opacity="1.000000" stroke="none" 
	d="
M189.896027,280.347046 
	C191.353012,280.352509 192.704941,280.770905 194.053360,281.573303 
	C192.630234,281.558197 191.210602,281.159088 189.896027,280.347046 
z"/>
<path fill="#010000" opacity="1.000000" stroke="none" 
	d="
M186.869064,278.330933 
	C188.076263,278.354858 189.143967,278.773468 190.133911,279.578979 
	C188.947281,279.552460 187.838425,279.139038 186.869064,278.330933 
z"/>
<path fill="#010000" opacity="1.000000" stroke="none" 
	d="
M185.800964,277.321045 
	C186.451584,277.045349 186.896133,277.160522 187.204041,277.635010 
	C186.576553,277.900177 186.085724,277.806030 185.800964,277.321045 
z"/>
<path fill="#010000" opacity="1.000000" stroke="none" 
	d="
M293.843079,158.464249 
	C295.293793,158.869431 296.696136,159.626160 298.014832,160.757004 
	C296.552399,160.359360 295.173584,159.587585 293.843079,158.464249 
z"/>
<path fill="#010000" opacity="1.000000" stroke="none" 
	d="
M289.843872,155.499710 
	C290.926483,155.543396 291.970215,155.969467 292.976013,156.778992 
	C291.893738,156.735672 290.849335,156.308884 289.843872,155.499710 
z"/>
<path fill="#010000" opacity="1.000000" stroke="none" 
	d="
M297.901428,161.461456 
	C298.966339,161.523849 300.043121,161.949615 301.020203,162.761047 
	C299.918121,162.706070 298.915710,162.265442 297.901428,161.461456 
z"/>
<path fill="#010000" opacity="1.000000" stroke="none" 
	d="
M292.745056,157.442505 
	C293.261139,157.199234 293.665741,157.321091 293.998352,157.786713 
	C293.495392,158.022858 293.064514,157.915253 292.745056,157.442505 
z"/>
<path fill="#010000" opacity="1.000000" stroke="none" 
	d="
M304.323700,229.354568 
	C304.458160,229.323883 304.749725,229.633270 305.367310,230.088745 
	C305.805176,230.095291 305.916992,229.955734 306.028839,229.816177 
	C306.028839,229.816177 306.035828,229.337692 306.021301,229.097443 
	C307.205933,229.396362 308.405151,229.935532 309.813324,230.732330 
	C309.483521,231.179413 308.944733,231.368896 308.206482,231.768036 
	C306.605957,232.241760 305.204895,232.505844 303.444946,232.763489 
	C303.070007,232.384857 303.054016,232.012680 303.029205,231.360748 
	C303.507202,230.618881 303.993988,230.156769 304.323700,229.354568 
z"/>
<path fill="#4D4E49" opacity="1.000000" stroke="none" 
	d="
M340.129761,264.046570 
	C337.746460,270.314728 335.037842,276.290833 328.850830,279.927216 
	C324.667694,282.385834 320.560150,284.024658 315.662842,282.029785 
	C313.685394,281.224274 311.487854,280.930908 309.370789,280.501617 
	C302.464752,279.101105 301.040527,277.360443 301.169525,270.341461 
	C301.438019,255.735748 316.296692,244.836105 330.170471,249.238235 
	C335.520111,250.935684 339.687042,254.062073 340.199615,261.075928 
	C340.192566,262.568085 340.161163,263.307312 340.129761,264.046570 
z"/>
<path fill="#010000" opacity="1.000000" stroke="none" 
	d="
M340.306091,264.266907 
	C340.161163,263.307312 340.192566,262.568085 340.287476,261.463745 
	C340.250519,258.294281 340.150055,255.489899 340.051636,252.296356 
	C340.846100,251.817261 341.638550,251.727295 342.768250,251.862839 
	C342.352386,257.429779 347.616943,257.589142 350.083130,260.530029 
	C349.026001,260.887878 347.952637,260.887878 348.033752,260.887878 
	C348.427551,266.026367 349.117096,271.065613 349.053833,276.095428 
	C349.027588,278.182953 347.392700,280.250214 346.498596,282.686829 
	C344.284637,284.199493 342.061432,285.352081 339.450958,286.553375 
	C339.019104,286.300354 338.974487,285.998596 339.012268,284.911102 
	C339.879761,281.145660 340.664795,278.165924 341.652771,275.073730 
	C341.934235,274.310791 342.012817,273.660278 342.087555,272.570831 
	C342.085358,270.638458 342.087006,269.145081 342.088654,267.651672 
	C342.088654,267.651672 342.158173,267.388306 342.214478,267.180359 
	C342.270752,266.972443 342.211273,266.686005 342.211273,266.686005 
	C342.211273,266.686005 341.915466,266.895416 341.915466,266.895416 
	C341.437775,266.092682 340.960114,265.289948 340.306091,264.266907 
z"/>
<path fill="#393F38" opacity="1.000000" stroke="none" 
	d="
M341.848114,267.940125 
	C342.087006,269.145081 342.085358,270.638458 341.887756,272.794250 
	C341.611145,274.033142 341.530518,274.609680 341.449860,275.186188 
	C340.664795,278.165924 339.879761,281.145660 338.934570,284.460205 
	C334.256378,285.458557 329.738281,286.122101 325.220184,286.785645 
	C325.020844,286.151672 324.821472,285.517731 324.622101,284.883789 
	C332.613495,281.584167 338.211578,275.970825 341.848114,267.940125 
z"/>
<path fill="#5B5B56" opacity="1.000000" stroke="none" 
	d="
M295.242981,273.776611 
	C295.424133,273.925415 295.467133,274.209167 295.510132,274.492889 
	C295.364197,274.484802 295.218292,274.476715 294.952698,274.327271 
	C294.833008,274.185913 295.104828,273.911560 295.242981,273.776611 
z"/>
<path fill="#2D1202" opacity="1.000000" stroke="none" 
	d="
M231.975601,236.461639 
	C232.173721,236.065598 232.451309,236.020187 233.147217,235.915222 
	C241.448456,245.761353 240.666656,264.355072 231.947235,273.172089 
	C231.414413,273.710876 230.507889,273.880127 229.413635,274.274689 
	C229.050156,273.913666 229.048294,273.499237 229.177429,272.792908 
	C229.308426,272.501007 229.339981,272.414886 229.557465,272.265442 
	C229.937805,271.783081 230.100677,271.450165 230.263550,271.117249 
	C230.263550,271.117249 230.129517,271.117615 230.386566,271.069305 
	C230.786560,270.691620 230.929504,270.362244 231.072449,270.032898 
	C231.072464,270.032898 230.999619,270.023865 231.309326,269.891907 
	C231.907898,269.205383 232.196777,268.650818 232.485672,268.096252 
	C238.421341,257.584564 237.910126,247.161636 231.975601,236.461639 
z"/>
<path fill="#010000" opacity="1.000000" stroke="none" 
	d="
M164.675262,264.643860 
	C163.194504,265.941589 161.393829,266.978790 159.521561,267.479095 
	C161.085098,266.089233 162.720215,265.236267 164.675262,264.643860 
z"/>
<path fill="#010000" opacity="1.000000" stroke="none" 
	d="
M159.100876,266.962891 
	C159.373093,267.729431 159.275558,268.526062 158.636490,269.418121 
	C157.287857,268.533813 156.480774,267.554047 155.902420,266.232666 
	C156.997818,266.258362 157.864456,266.625671 159.100876,266.962891 
z"/>
<path fill="#010000" opacity="1.000000" stroke="none" 
	d="
M163.004349,274.822723 
	C164.427231,274.997314 165.803467,275.577179 167.128784,276.555206 
	C165.704468,276.378235 164.331085,275.803131 163.004349,274.822723 
z"/>
<path fill="#010000" opacity="1.000000" stroke="none" 
	d="
M157.984406,269.853516 
	C158.622452,269.817902 159.211349,270.215149 159.435516,271.082764 
	C158.692276,271.130859 158.313751,270.708618 157.984406,269.853516 
z"/>
<path fill="#010000" opacity="1.000000" stroke="none" 
	d="
M346.860779,283.121765 
	C347.904968,282.052643 349.348999,281.066193 351.172791,280.034119 
	C350.121857,281.060455 348.691223,282.132446 346.860779,283.121765 
z"/>
<path fill="#010000" opacity="1.000000" stroke="none" 
	d="
M350.114899,261.208496 
	C350.631592,261.016876 351.223450,261.168976 351.946594,261.631165 
	C351.448608,261.811584 350.819305,261.681885 350.114899,261.208496 
z"/>
<path fill="#010000" opacity="1.000000" stroke="none" 
	d="
M343.760834,249.147888 
	C343.995056,249.929932 343.872009,250.847946 343.417633,251.918121 
	C343.192047,251.141464 343.297821,250.212662 343.760834,249.147888 
z"/>
<path fill="#010000" opacity="1.000000" stroke="none" 
	d="
M344.795258,247.117874 
	C345.017944,247.648575 344.903870,248.273239 344.437744,248.989914 
	C344.209961,248.458557 344.334229,247.835205 344.795258,247.117874 
z"/>
<path fill="#EA9A24" opacity="1.000000" stroke="none" 
	d="
M232.211700,268.259033 
	C232.196777,268.650818 231.907898,269.205383 231.341827,269.909393 
	C231.355652,269.513153 231.646698,268.967468 232.211700,268.259033 
z"/>
<path fill="#EA9A24" opacity="1.000000" stroke="none" 
	d="
M230.040222,271.275635 
	C230.100677,271.450165 229.937805,271.783081 229.518250,272.241638 
	C229.446686,272.056213 229.631790,271.745117 230.040222,271.275635 
z"/>
<path fill="#EA9A24" opacity="1.000000" stroke="none" 
	d="
M230.872040,270.198700 
	C230.929504,270.362244 230.786560,270.691620 230.390045,271.136230 
	C230.314865,270.955811 230.493240,270.660156 230.872040,270.198700 
z"/>
<path fill="#393F38" opacity="1.000000" stroke="none" 
	d="
M305.897400,229.885254 
	C305.916992,229.955734 305.805176,230.095291 305.585815,230.131424 
	C305.478271,230.028015 305.765930,229.954315 305.897400,229.885254 
z"/>
<path fill="#191C16" opacity="1.000000" stroke="none" 
	d="
M341.652771,275.073730 
	C341.530518,274.609680 341.611145,274.033142 341.891602,273.233215 
	C342.012817,273.660278 341.934235,274.310791 341.652771,275.073730 
z"/>
<path fill="#191C16" opacity="1.000000" stroke="none" 
	d="
M341.971832,266.952209 
	C341.915466,266.895416 342.211273,266.686005 342.211273,266.686005 
	C342.211273,266.686005 342.270752,266.972443 342.208923,267.044312 
	C342.147095,267.116150 342.028198,267.009033 341.971832,266.952209 
z"/>
</svg>